<svg width="13" height="15" viewBox="0 0 13 15" fill="none" xmlns="http://www.w3.org/2000/svg">
<path d="M10.3717 3.28125H2.88987L2.25061 1.95912C2.17885 1.81072 2.04311 1.71875 1.89583 1.71875H1.08333C0.858968 1.71875 0.677082 1.92862 0.677082 2.1875C0.677082 2.44638 0.858968 2.65625 1.08333 2.65625H1.65728L2.28816 3.96103L3.74312 7.67556L3.74461 7.67931L3.87276 8.0065L2.41197 9.80438C2.30693 9.93369 2.27405 10.1203 2.32699 10.2866C2.37993 10.4529 2.50963 10.5706 2.66221 10.5908L3.9937 10.7663C5.65917 10.9859 7.34088 10.9859 9.00629 10.7663L10.3378 10.5908C10.5607 10.5613 10.7208 10.329 10.6953 10.0718C10.6698 9.81456 10.4685 9.62988 10.2456 9.65931L8.91404 9.83488C7.3099 10.0464 5.6901 10.0464 4.08596 9.83488L3.55755 9.76519L4.62972 8.44563C4.64009 8.43281 4.64972 8.41956 4.65861 8.40588L5.06639 8.46713C5.63783 8.55294 6.21541 8.56975 6.78984 8.51731C8.12966 8.39506 9.37137 7.65944 10.2383 6.47444L10.5514 6.04641C10.562 6.03203 10.5717 6.01694 10.5806 6.00121L11.1642 4.97506C11.5779 4.24771 11.1257 3.28125 10.3717 3.28125Z" fill="black"/>
<path d="M3.52083 11.5625C3.0721 11.5625 2.70833 11.9822 2.70833 12.5C2.70833 13.0178 3.0721 13.4375 3.52083 13.4375C3.96957 13.4375 4.33333 13.0178 4.33333 12.5C4.33333 11.9822 3.96957 11.5625 3.52083 11.5625Z" fill="black"/>
<path d="M8.66667 12.5C8.66667 11.9822 9.03045 11.5625 9.47917 11.5625C9.92788 11.5625 10.2917 11.9822 10.2917 12.5C10.2917 13.0178 9.92788 13.4375 9.47917 13.4375C9.03045 13.4375 8.66667 13.0178 8.66667 12.5Z" fill="black"/>
</svg>
